<?xml version="1.0" encoding="UTF-8"?>
<svg width="100%" height="100%" role="img" title="Silver Sanz Logo" aria-label="[title + description]" viewBox="0 0 131 20" version="1.1" xmlns="http://www.w3.org/2000/svg" xmlns:xlink="http://www.w3.org/1999/xlink">
    <title>Silver Sanz Logo</title>
    <desc>Logotype</desc>
    <defs></defs>
    <g id="Header-(logo+menu)" stroke="none" stroke-width="1" fill="none" fill-rule="evenodd" transform="translate(-67.000000, -18.000000)">
        <path d="M77.64,21.4 L76.032,22.432 C75.312,21.184 74.448,20.464 72.912,20.464 C71.304,20.464 69.912,21.616 69.912,23.272 C69.912,24.832 71.52,25.552 72.744,26.104 L73.944,26.632 C76.296,27.664 78.288,28.84 78.288,31.72 C78.288,34.888 75.744,37.312 72.6,37.312 C69.696,37.312 67.536,35.44 66.96,32.632 L68.928,32.08 C69.192,33.928 70.608,35.44 72.552,35.44 C74.496,35.44 76.272,33.952 76.272,31.912 C76.272,29.8 74.616,29.08 72.936,28.312 L71.832,27.832 C69.72,26.872 67.896,25.792 67.896,23.2 C67.896,20.392 70.272,18.592 72.96,18.592 C74.976,18.592 76.68,19.624 77.64,21.4 Z M83.0639999,18.904 L83.0639999,37 L81.0479999,37 L81.0479999,18.904 L83.0639999,18.904 Z M88.5119999,18.904 L88.5119999,35.128 L93.5039999,35.128 L93.5039999,37 L86.4959999,37 L86.4959999,18.904 L88.5119999,18.904 Z M93.8399998,18.904 L98.9999998,32.704 L104.16,18.904 L106.344,18.904 L98.9999998,38.08 L91.6559998,18.904 L93.8399998,18.904 Z M108.072,37 L108.072,18.904 L117.456,18.904 L117.456,20.776 L110.088,20.776 L110.088,26.152 L117.24,26.152 L117.24,28.024 L110.088,28.024 L110.088,35.128 L117.456,35.128 L117.456,37 L108.072,37 Z M122.664,20.776 L122.664,27.28 L123.288,27.28 C125.568,27.28 127.872,26.848 127.872,24.04 C127.872,21.064 125.688,20.776 123.264,20.776 L122.664,20.776 Z M122.664,29.056 L122.664,37 L120.648,37 L120.648,18.904 L123.264,18.904 C126.696,18.904 129.888,19.816 129.888,23.896 C129.888,26.68 128.136,28.648 125.352,28.888 L131.112,37 L128.64,37 L123.168,29.056 L122.664,29.056 Z M146.384,21.4 L144.776,22.432 C144.056,21.184 143.192,20.464 141.656,20.464 C140.048,20.464 138.656,21.616 138.656,23.272 C138.656,24.832 140.264,25.552 141.488,26.104 L142.688,26.632 C145.04,27.664 147.032,28.84 147.032,31.72 C147.032,34.888 144.488,37.312 141.344,37.312 C138.44,37.312 136.28,35.44 135.704,32.632 L137.672,32.08 C137.936,33.928 139.352,35.44 141.296,35.44 C143.24,35.44 145.016,33.952 145.016,31.912 C145.016,29.8 143.36,29.08 141.68,28.312 L140.576,27.832 C138.464,26.872 136.64,25.792 136.64,23.2 C136.64,20.392 139.016,18.592 141.704,18.592 C143.72,18.592 145.424,19.624 146.384,21.4 Z M160.184,31.864 L152.456,31.864 L150.272,37 L148.064,37 L156.416,18.04 L164.552,37 L162.32,37 L160.184,31.864 Z M159.392,29.992 L156.368,22.744 L153.272,29.992 L159.392,29.992 Z M166.4,37 L166.4,18.136 L180.512,32.92 L180.512,18.904 L182.528,18.904 L182.528,37.816 L168.416,23.056 L168.416,37 L166.4,37 Z M187.904,35.128 L197.528,35.128 L197.528,37 L184.568,37 L194.432,20.776 L185.816,20.776 L185.816,18.904 L197.792,18.904 L187.904,35.128 Z" id="SILVER-SANZ" fill="#FFFFFF"></path>
    </g>
</svg>
